# xmcd CD database file
#
# Track frame offsets:
#	150
#	12895
#	28440
#	61392
#
# Disc length: 824 seconds
#
# Revision: 1
# Processed by: cddbd v1.5.1PL2 Copyright (c) Steve Scherf et al.
# Submitted via: CDex 1.51
#
DISCID=2f033604
DTITLE=Short Hair Front - Orange-Soda ep
DYEAR=2000
DGENRE=Rock
TTITLE0=Hello To Everyone
TTITLE1=オレンジソーダ
TTITLE2=Brightest Light
TTITLE3=Data
EXTD=YEAR: 2000
EXTT0=
EXTT1=
EXTT2=
EXTT3=
PLAYORDER=
